<svg width="223" height="46" viewBox="0 0 223 46" fill="none" xmlns="http://www.w3.org/2000/svg">
<rect y="4" width="44" height="42" rx="8" fill="#00B0F0"/>
<path d="M19 25.1152H6.70501C6.84661 26.1254 7.34218 27.0416 8.12094 27.6994C8.8997 28.3338 9.89086 28.6392 11.0708 28.6392C12.4631 28.6627 13.7847 28.1223 14.7522 27.1591L17.9852 28.6392C17.2537 29.7198 16.2625 30.5891 15.1062 31.1764C13.8555 31.7402 12.4867 32.0221 11.118 31.9986C8.73451 31.9986 6.77581 31.2469 5.26549 29.7433C3.75516 28.2398 3 26.3369 3 24.0815C3 21.7558 3.75516 19.8528 5.24189 18.3023C6.72861 16.7518 8.61652 16 10.882 16C13.2891 16 15.2242 16.7753 16.7345 18.3023C18.2448 19.8293 19 21.8497 19 24.3635V25.1152ZM15.1534 22.1081C14.9174 21.2624 14.3746 20.5341 13.6667 20.0408C12.9115 19.5004 11.9911 19.2185 11.0708 19.242C10.056 19.2185 9.0649 19.5474 8.26254 20.1347C7.76696 20.5106 7.29498 21.1684 6.87021 22.1081H15.1534Z" fill="white"/>
<path d="M27.8505 16.3971V18.0538C28.4963 17.4005 29.2616 16.8871 30.1226 16.5138C30.9596 16.1638 31.8445 16.0005 32.7294 16.0005C34.6906 15.9772 36.58 16.7938 37.8715 18.2404C39.2825 19.7337 40 21.647 40 23.957C40 26.1969 39.2825 28.0869 37.8236 29.6035C36.3647 31.1201 34.6428 31.8668 32.6338 31.8668C31.7728 31.8668 30.9357 31.7035 30.1465 31.4001C29.2855 31.0268 28.5202 30.5135 27.8505 29.8835V37H24V16.3971H27.8505ZM31.9163 19.5004C30.7683 19.4771 29.6682 19.9204 28.8789 20.7137C28.0897 21.5304 27.6831 22.5803 27.6592 23.9103C27.6592 25.2403 28.0658 26.3369 28.8789 27.1536C29.6682 27.9702 30.7683 28.4135 31.9163 28.3902C33.0643 28.4135 34.1405 27.9469 34.9058 27.1302C35.719 26.2902 36.1256 25.2169 36.1256 23.9103C36.1256 22.6037 35.719 21.5537 34.9297 20.737C34.1644 19.9437 33.0643 19.4771 31.9163 19.5004Z" fill="white"/>
<path d="M60.0312 34.3125C58.0833 34.3125 56.4948 33.5521 55.2656 32.0312C54.0469 30.5 53.4375 28.2552 53.4375 25.2969C53.4375 22.3073 54.0573 20.0469 55.2969 18.5156C56.5365 16.974 58.1562 16.2031 60.1562 16.2031C60.9896 16.2031 61.724 16.3177 62.3594 16.5469C62.9948 16.776 63.5417 17.0833 64 17.4688C64.4688 17.8542 64.8646 18.2865 65.1875 18.7656H65.3438C65.2812 18.4323 65.2031 17.9427 65.1094 17.2969C65.026 16.6406 64.9844 15.9688 64.9844 15.2812V9.6875H69.7656V34H66.1094L65.1875 31.7344H64.9844C64.6823 32.2135 64.3021 32.651 63.8438 33.0469C63.3958 33.4323 62.8594 33.7396 62.2344 33.9688C61.6094 34.1979 60.875 34.3125 60.0312 34.3125ZM61.7031 30.5156C63.0052 30.5156 63.9219 30.1302 64.4531 29.3594C64.9948 28.5781 65.2812 27.4062 65.3125 25.8438V25.3281C65.3125 23.6302 65.0521 22.3333 64.5312 21.4375C64.0104 20.5312 63.0417 20.0781 61.625 20.0781C60.5729 20.0781 59.75 20.5312 59.1562 21.4375C58.5625 22.3438 58.2656 23.651 58.2656 25.3594C58.2656 27.0677 58.5625 28.3542 59.1562 29.2188C59.7604 30.0833 60.6094 30.5156 61.7031 30.5156ZM81.9062 16.1719C84.25 16.1719 86.0469 16.6823 87.2969 17.7031C88.5469 18.724 89.1719 20.276 89.1719 22.3594V34H85.8438L84.9219 31.625H84.7969C84.2969 32.25 83.7865 32.7604 83.2656 33.1562C82.7448 33.5521 82.1458 33.8438 81.4688 34.0312C80.7917 34.2188 79.9688 34.3125 79 34.3125C77.9688 34.3125 77.0417 34.1146 76.2188 33.7188C75.4062 33.3229 74.7656 32.7188 74.2969 31.9062C73.8281 31.0833 73.5938 30.0417 73.5938 28.7812C73.5938 26.9271 74.2448 25.5625 75.5469 24.6875C76.849 23.8021 78.8021 23.3125 81.4062 23.2188L84.4375 23.125V22.3594C84.4375 21.4427 84.1979 20.7708 83.7188 20.3438C83.2396 19.9167 82.5729 19.7031 81.7188 19.7031C80.875 19.7031 80.0469 19.8229 79.2344 20.0625C78.4219 20.3021 77.6094 20.6042 76.7969 20.9688L75.2188 17.75C76.1458 17.2604 77.1823 16.875 78.3281 16.5938C79.4844 16.3125 80.6771 16.1719 81.9062 16.1719ZM84.4375 25.9062L82.5938 25.9688C81.0521 26.0104 79.9792 26.2865 79.375 26.7969C78.7812 27.3073 78.4844 27.9792 78.4844 28.8125C78.4844 29.5417 78.6979 30.0625 79.125 30.375C79.5521 30.6771 80.1094 30.8281 80.7969 30.8281C81.8177 30.8281 82.6771 30.526 83.375 29.9219C84.0833 29.3177 84.4375 28.4583 84.4375 27.3438V25.9062ZM106.281 28.8125C106.281 30 106 31.0052 105.438 31.8281C104.885 32.6406 104.057 33.2604 102.953 33.6875C101.849 34.1042 100.474 34.3125 98.8281 34.3125C97.6094 34.3125 96.5625 34.2344 95.6875 34.0781C94.8229 33.9219 93.9479 33.6615 93.0625 33.2969V29.3594C94.0104 29.7865 95.026 30.1406 96.1094 30.4219C97.2031 30.6927 98.1615 30.8281 98.9844 30.8281C99.9115 30.8281 100.573 30.6927 100.969 30.4219C101.375 30.1406 101.578 29.776 101.578 29.3281C101.578 29.0365 101.495 28.776 101.328 28.5469C101.172 28.3073 100.828 28.0417 100.297 27.75C99.7656 27.4479 98.9323 27.0573 97.7969 26.5781C96.7031 26.1198 95.8021 25.6562 95.0938 25.1875C94.3958 24.7188 93.875 24.1667 93.5312 23.5312C93.1979 22.8854 93.0312 22.0677 93.0312 21.0781C93.0312 19.4635 93.6562 18.25 94.9062 17.4375C96.1667 16.6146 97.849 16.2031 99.9531 16.2031C101.036 16.2031 102.068 16.3125 103.047 16.5312C104.036 16.75 105.052 17.099 106.094 17.5781L104.656 21.0156C103.792 20.6406 102.974 20.3333 102.203 20.0938C101.443 19.8542 100.667 19.7344 99.875 19.7344C99.1771 19.7344 98.651 19.8281 98.2969 20.0156C97.9427 20.2031 97.7656 20.4896 97.7656 20.875C97.7656 21.1562 97.8542 21.4062 98.0312 21.625C98.2188 21.8438 98.5729 22.0885 99.0938 22.3594C99.625 22.6198 100.401 22.9583 101.422 23.375C102.411 23.7812 103.271 24.2083 104 24.6562C104.729 25.0938 105.292 25.6406 105.688 26.2969C106.083 26.9427 106.281 27.7812 106.281 28.8125ZM114.766 9.6875V14.6406C114.766 15.5052 114.734 16.3281 114.672 17.1094C114.62 17.8906 114.578 18.4427 114.547 18.7656H114.797C115.172 18.1615 115.615 17.6719 116.125 17.2969C116.646 16.9219 117.219 16.6458 117.844 16.4688C118.469 16.2917 119.141 16.2031 119.859 16.2031C121.12 16.2031 122.219 16.4271 123.156 16.875C124.094 17.3125 124.823 18.0052 125.344 18.9531C125.865 19.8906 126.125 21.1094 126.125 22.6094V34H121.359V23.7969C121.359 22.5469 121.13 21.6042 120.672 20.9688C120.214 20.3333 119.505 20.0156 118.547 20.0156C117.589 20.0156 116.833 20.2396 116.281 20.6875C115.729 21.125 115.339 21.776 115.109 22.6406C114.88 23.4948 114.766 24.5417 114.766 25.7812V34H110V9.6875H114.766ZM135.797 9.6875V15.3438C135.797 16 135.776 16.651 135.734 17.2969C135.703 17.9427 135.661 18.4427 135.609 18.7969H135.797C136.255 18.0781 136.88 17.4688 137.672 16.9688C138.464 16.4583 139.49 16.2031 140.75 16.2031C142.708 16.2031 144.297 16.9688 145.516 18.5C146.734 20.0312 147.344 22.276 147.344 25.2344C147.344 27.224 147.062 28.8958 146.5 30.25C145.938 31.5938 145.151 32.6094 144.141 33.2969C143.13 33.974 141.958 34.3125 140.625 34.3125C139.344 34.3125 138.333 34.0833 137.594 33.625C136.854 33.1667 136.255 32.651 135.797 32.0781H135.469L134.672 34H131.031V9.6875H135.797ZM139.219 20.0156C138.385 20.0156 137.724 20.1875 137.234 20.5312C136.745 20.875 136.385 21.3906 136.156 22.0781C135.938 22.7656 135.818 23.6354 135.797 24.6875V25.2031C135.797 26.901 136.047 28.2031 136.547 29.1094C137.047 30.0052 137.958 30.4531 139.281 30.4531C140.26 30.4531 141.036 30 141.609 29.0938C142.193 28.1875 142.484 26.8802 142.484 25.1719C142.484 23.4635 142.193 22.1771 141.609 21.3125C141.026 20.4479 140.229 20.0156 139.219 20.0156ZM167.156 25.2344C167.156 26.6927 166.958 27.9844 166.562 29.1094C166.177 30.2344 165.609 31.1875 164.859 31.9688C164.12 32.7396 163.224 33.3229 162.172 33.7188C161.13 34.1146 159.953 34.3125 158.641 34.3125C157.411 34.3125 156.281 34.1146 155.25 33.7188C154.229 33.3229 153.339 32.7396 152.578 31.9688C151.828 31.1875 151.245 30.2344 150.828 29.1094C150.422 27.9844 150.219 26.6927 150.219 25.2344C150.219 23.2969 150.562 21.6562 151.25 20.3125C151.938 18.9688 152.917 17.9479 154.188 17.25C155.458 16.5521 156.974 16.2031 158.734 16.2031C160.37 16.2031 161.818 16.5521 163.078 17.25C164.349 17.9479 165.344 18.9688 166.062 20.3125C166.792 21.6562 167.156 23.2969 167.156 25.2344ZM155.078 25.2344C155.078 26.3802 155.203 27.3438 155.453 28.125C155.703 28.9062 156.094 29.4948 156.625 29.8906C157.156 30.2865 157.849 30.4844 158.703 30.4844C159.547 30.4844 160.229 30.2865 160.75 29.8906C161.281 29.4948 161.667 28.9062 161.906 28.125C162.156 27.3438 162.281 26.3802 162.281 25.2344C162.281 24.0781 162.156 23.1198 161.906 22.3594C161.667 21.5885 161.281 21.0104 160.75 20.625C160.219 20.2396 159.526 20.0469 158.672 20.0469C157.411 20.0469 156.495 20.4792 155.922 21.3438C155.359 22.2083 155.078 23.5052 155.078 25.2344ZM178.25 16.1719C180.594 16.1719 182.391 16.6823 183.641 17.7031C184.891 18.724 185.516 20.276 185.516 22.3594V34H182.188L181.266 31.625H181.141C180.641 32.25 180.13 32.7604 179.609 33.1562C179.089 33.5521 178.49 33.8438 177.812 34.0312C177.135 34.2188 176.312 34.3125 175.344 34.3125C174.312 34.3125 173.385 34.1146 172.562 33.7188C171.75 33.3229 171.109 32.7188 170.641 31.9062C170.172 31.0833 169.938 30.0417 169.938 28.7812C169.938 26.9271 170.589 25.5625 171.891 24.6875C173.193 23.8021 175.146 23.3125 177.75 23.2188L180.781 23.125V22.3594C180.781 21.4427 180.542 20.7708 180.062 20.3438C179.583 19.9167 178.917 19.7031 178.062 19.7031C177.219 19.7031 176.391 19.8229 175.578 20.0625C174.766 20.3021 173.953 20.6042 173.141 20.9688L171.562 17.75C172.49 17.2604 173.526 16.875 174.672 16.5938C175.828 16.3125 177.021 16.1719 178.25 16.1719ZM180.781 25.9062L178.938 25.9688C177.396 26.0104 176.323 26.2865 175.719 26.7969C175.125 27.3073 174.828 27.9792 174.828 28.8125C174.828 29.5417 175.042 30.0625 175.469 30.375C175.896 30.6771 176.453 30.8281 177.141 30.8281C178.161 30.8281 179.021 30.526 179.719 29.9219C180.427 29.3177 180.781 28.4583 180.781 27.3438V25.9062ZM200.188 16.2031C200.427 16.2031 200.703 16.2188 201.016 16.25C201.339 16.2708 201.599 16.3021 201.797 16.3438L201.438 20.8125C201.281 20.7604 201.057 20.724 200.766 20.7031C200.484 20.6719 200.24 20.6562 200.031 20.6562C199.417 20.6562 198.818 20.7344 198.234 20.8906C197.661 21.0469 197.146 21.3021 196.688 21.6562C196.229 22 195.865 22.4583 195.594 23.0312C195.333 23.5938 195.203 24.2865 195.203 25.1094V34H190.438V16.5312H194.047L194.75 19.4688H194.984C195.328 18.875 195.755 18.3333 196.266 17.8438C196.786 17.3438 197.375 16.9479 198.031 16.6562C198.698 16.3542 199.417 16.2031 200.188 16.2031ZM210.5 34.3125C208.552 34.3125 206.964 33.5521 205.734 32.0312C204.516 30.5 203.906 28.2552 203.906 25.2969C203.906 22.3073 204.526 20.0469 205.766 18.5156C207.005 16.974 208.625 16.2031 210.625 16.2031C211.458 16.2031 212.193 16.3177 212.828 16.5469C213.464 16.776 214.01 17.0833 214.469 17.4688C214.938 17.8542 215.333 18.2865 215.656 18.7656H215.812C215.75 18.4323 215.672 17.9427 215.578 17.2969C215.495 16.6406 215.453 15.9688 215.453 15.2812V9.6875H220.234V34H216.578L215.656 31.7344H215.453C215.151 32.2135 214.771 32.651 214.312 33.0469C213.865 33.4323 213.328 33.7396 212.703 33.9688C212.078 34.1979 211.344 34.3125 210.5 34.3125ZM212.172 30.5156C213.474 30.5156 214.391 30.1302 214.922 29.3594C215.464 28.5781 215.75 27.4062 215.781 25.8438V25.3281C215.781 23.6302 215.521 22.3333 215 21.4375C214.479 20.5312 213.51 20.0781 212.094 20.0781C211.042 20.0781 210.219 20.5312 209.625 21.4375C209.031 22.3438 208.734 23.651 208.734 25.3594C208.734 27.0677 209.031 28.3542 209.625 29.2188C210.229 30.0833 211.078 30.5156 212.172 30.5156Z" fill="#f5f5f5"/>
</svg>
